<?xml version="1.0" encoding="utf-8"?>
<!-- Generator: Adobe Illustrator 18.0.0, SVG Export Plug-In . SVG Version: 6.00 Build 0)  -->
<!DOCTYPE svg PUBLIC "-//W3C//DTD SVG 1.1//EN" "http://www.w3.org/Graphics/SVG/1.1/DTD/svg11.dtd">
<svg version="1.1" id="Layer_1" xmlns="http://www.w3.org/2000/svg" xmlns:xlink="http://www.w3.org/1999/xlink" x="0px" y="0px"
	 viewBox="0 0 64 64" enable-background="new 0 0 64 64" xml:space="preserve">
<g>
	<g>
		<path fill="#55ACEE" d="M32,0c17.7,0,32,14.3,32,32S49.7,64,32,64S0,49.7,0,32S14.3,0,32,0z"/>
	</g>
	<g>
		<path fill="#FFFFFF" d="M51,20.6c-1.4,0.6-2.9,1-4.5,1.2c1.6-0.9,2.8-2.4,3.4-4.2c-1.5,0.9-3.2,1.5-5,1.8
			c-1.4-1.5-3.4-2.4-5.7-2.4c-4.3,0-7.8,3.4-7.8,7.6c0,0.6,0.1,1.2,0.2,1.7C25.2,26,19.5,23,15.6,18.4c-0.7,1.1-1.1,2.4-1.1,3.8
			c0,2.6,1.4,4.9,3.5,6.3c-1.3,0-2.5-0.4-3.5-0.9c0,0,0,0.1,0,0.1c0,3.7,2.7,6.7,6.3,7.4c-0.7,0.2-1.3,0.3-2.1,0.3
			c-0.5,0-1,0-1.5-0.1c1,3,3.9,5.2,7.3,5.3c-2.7,2-6,3.2-9.7,3.2c-0.6,0-1.2,0-1.9-0.1c3.5,2.1,7.5,3.4,12,3.4
			c14.3,0,22.2-11.5,22.2-21.5c0-0.3,0-0.7,0-1C48.6,23.4,50,22.1,51,20.6z"/>
	</g>
</g>
</svg>
