<?xml version="1.0" encoding="utf-8"?>
<!-- Generator: Adobe Illustrator 18.0.0, SVG Export Plug-In . SVG Version: 6.00 Build 0)  -->
<!DOCTYPE svg PUBLIC "-//W3C//DTD SVG 1.1//EN" "http://www.w3.org/Graphics/SVG/1.1/DTD/svg11.dtd">
<svg version="1.1" id="Layer_1" xmlns="http://www.w3.org/2000/svg" xmlns:xlink="http://www.w3.org/1999/xlink" x="0px" y="0px"
	 viewBox="0 0 64 64" enable-background="new 0 0 64 64" xml:space="preserve">
<g>
	<g>
		<path fill="#CD201F" d="M32,0c17.7,0,32,14.3,32,32S49.7,64,32,64S0,49.7,0,32S14.3,0,32,0z"/>
	</g>
	<g>
		<path fill="#FFFFFF" d="M50.6,24.6c0,0-0.4-2.5-1.5-3.7c-1.4-1.5-3.1-1.5-3.8-1.6C40,19,32,19,32,19h0c0,0-8,0-13.3,0.4
			c-0.7,0.1-2.4,0.1-3.8,1.6c-1.1,1.1-1.5,3.7-1.5,3.7s-0.4,3-0.4,6v2.8c0,3,0.4,6,0.4,6s0.4,2.5,1.5,3.7c1.4,1.5,3.3,1.4,4.2,1.6
			C22.1,44.9,32,45,32,45s8,0,13.3-0.4c0.7-0.1,2.4-0.1,3.8-1.6c1.1-1.1,1.5-3.7,1.5-3.7s0.4-3,0.4-6v-2.8
			C51,27.6,50.6,24.6,50.6,24.6z M28.1,36.8l0-10.4l10.3,5.2L28.1,36.8z"/>
	</g>
</g>
</svg>
